<mxfile host="app.diagrams.net" modified="2023-05-12T16:55:56.754Z" agent="Mozilla/5.0 (Windows NT 10.0; Win64; x64) AppleWebKit/537.36 (KHTML, like Gecko) Chrome/110.0.0.0 YaBrowser/23.3.3.719 Yowser/2.5 Safari/537.36" etag="GZSyoZdrULbeSFAzPRCI" version="21.3.0" type="device">
  <diagram name="Page-1" id="9361dd3d-8414-5efd-6122-117bd74ce7a7">
    <mxGraphModel dx="2355" dy="2253" grid="1" gridSize="10" guides="1" tooltips="1" connect="1" arrows="1" fold="1" page="0" pageScale="1.5" pageWidth="826" pageHeight="1169" background="none" math="0" shadow="0">
      <root>
        <mxCell id="0" />
        <mxCell id="1" parent="0" />
        <mxCell id="O9S22BpsZ0d_PMURBxH4-89" value="Guitarra" style="swimlane;fontStyle=1;align=center;verticalAlign=top;childLayout=stackLayout;horizontal=1;startSize=26;horizontalStack=0;resizeParent=1;resizeParentMax=0;resizeLast=0;collapsible=1;marginBottom=0;whiteSpace=wrap;html=1;fillColor=#d5e8d4;strokeColor=#82b366;" vertex="1" parent="1">
          <mxGeometry x="-990" y="-1080" width="160" height="172" as="geometry" />
        </mxCell>
        <mxCell id="O9S22BpsZ0d_PMURBxH4-90" value="Tipo: Cuerda&lt;br&gt;Sonido: Vibración&lt;br&gt;Resonancia: Si&lt;br&gt;Acústica: Si" style="text;strokeColor=#82b366;fillColor=#d5e8d4;align=left;verticalAlign=top;spacingLeft=4;spacingRight=4;overflow=hidden;rotatable=0;points=[[0,0.5],[1,0.5]];portConstraint=eastwest;whiteSpace=wrap;html=1;" vertex="1" parent="O9S22BpsZ0d_PMURBxH4-89">
          <mxGeometry y="26" width="160" height="74" as="geometry" />
        </mxCell>
        <mxCell id="O9S22BpsZ0d_PMURBxH4-92" value="Métodos:&lt;br style=&quot;border-color: var(--border-color);&quot;&gt;Vibrar: Si&lt;br style=&quot;border-color: var(--border-color);&quot;&gt;Afinar(){guia sonora, etc}&lt;br style=&quot;border-color: var(--border-color);&quot;&gt;Resonar: No" style="text;strokeColor=#82b366;fillColor=#d5e8d4;align=left;verticalAlign=top;spacingLeft=4;spacingRight=4;overflow=hidden;rotatable=0;points=[[0,0.5],[1,0.5]];portConstraint=eastwest;whiteSpace=wrap;html=1;" vertex="1" parent="O9S22BpsZ0d_PMURBxH4-89">
          <mxGeometry y="100" width="160" height="72" as="geometry" />
        </mxCell>
        <mxCell id="O9S22BpsZ0d_PMURBxH4-93" value="Bombo" style="swimlane;fontStyle=1;align=center;verticalAlign=top;childLayout=stackLayout;horizontal=1;startSize=26;horizontalStack=0;resizeParent=1;resizeParentMax=0;resizeLast=0;collapsible=1;marginBottom=0;whiteSpace=wrap;html=1;fillColor=#fff2cc;strokeColor=#d6b656;" vertex="1" parent="1">
          <mxGeometry x="-750" y="-1080" width="160" height="170" as="geometry">
            <mxRectangle x="-760" y="-760" width="80" height="30" as="alternateBounds" />
          </mxGeometry>
        </mxCell>
        <mxCell id="O9S22BpsZ0d_PMURBxH4-94" value="Tipo: Percusión&lt;br style=&quot;border-color: var(--border-color);&quot;&gt;Sonido: Vibración&lt;br style=&quot;border-color: var(--border-color);&quot;&gt;Resonancia: Si" style="text;strokeColor=#d6b656;fillColor=#fff2cc;align=left;verticalAlign=top;spacingLeft=4;spacingRight=4;overflow=hidden;rotatable=0;points=[[0,0.5],[1,0.5]];portConstraint=eastwest;whiteSpace=wrap;html=1;" vertex="1" parent="O9S22BpsZ0d_PMURBxH4-93">
          <mxGeometry y="26" width="160" height="54" as="geometry" />
        </mxCell>
        <mxCell id="O9S22BpsZ0d_PMURBxH4-96" value="Métodos:&lt;br style=&quot;border-color: var(--border-color);&quot;&gt;Vibrar: Si&lt;br style=&quot;border-color: var(--border-color);&quot;&gt;Afinar(){Verificar tensión del parche}&lt;br style=&quot;border-color: var(--border-color);&quot;&gt;Resonar: Si" style="text;strokeColor=#d6b656;fillColor=#fff2cc;align=left;verticalAlign=top;spacingLeft=4;spacingRight=4;overflow=hidden;rotatable=0;points=[[0,0.5],[1,0.5]];portConstraint=eastwest;whiteSpace=wrap;html=1;" vertex="1" parent="O9S22BpsZ0d_PMURBxH4-93">
          <mxGeometry y="80" width="160" height="90" as="geometry" />
        </mxCell>
        <mxCell id="O9S22BpsZ0d_PMURBxH4-97" value="Violín" style="swimlane;fontStyle=1;align=center;verticalAlign=top;childLayout=stackLayout;horizontal=1;startSize=26;horizontalStack=0;resizeParent=1;resizeParentMax=0;resizeLast=0;collapsible=1;marginBottom=0;whiteSpace=wrap;html=1;fillColor=#e1d5e7;strokeColor=#9673a6;" vertex="1" parent="1">
          <mxGeometry x="-510" y="-1080" width="160" height="78" as="geometry">
            <mxRectangle x="-680" y="-640" width="90" height="30" as="alternateBounds" />
          </mxGeometry>
        </mxCell>
        <mxCell id="O9S22BpsZ0d_PMURBxH4-98" value="+ field: type" style="text;strokeColor=#9673a6;fillColor=#e1d5e7;align=left;verticalAlign=top;spacingLeft=4;spacingRight=4;overflow=hidden;rotatable=0;points=[[0,0.5],[1,0.5]];portConstraint=eastwest;whiteSpace=wrap;html=1;" vertex="1" parent="O9S22BpsZ0d_PMURBxH4-97">
          <mxGeometry y="26" width="160" height="26" as="geometry" />
        </mxCell>
        <mxCell id="O9S22BpsZ0d_PMURBxH4-100" value="+ method(type): type" style="text;strokeColor=#9673a6;fillColor=#e1d5e7;align=left;verticalAlign=top;spacingLeft=4;spacingRight=4;overflow=hidden;rotatable=0;points=[[0,0.5],[1,0.5]];portConstraint=eastwest;whiteSpace=wrap;html=1;" vertex="1" parent="O9S22BpsZ0d_PMURBxH4-97">
          <mxGeometry y="52" width="160" height="26" as="geometry" />
        </mxCell>
        <mxCell id="O9S22BpsZ0d_PMURBxH4-106" style="edgeStyle=orthogonalEdgeStyle;rounded=0;orthogonalLoop=1;jettySize=auto;html=1;exitX=0;exitY=0;exitDx=0;exitDy=0;entryX=0.5;entryY=0;entryDx=0;entryDy=0;" edge="1" parent="1" source="O9S22BpsZ0d_PMURBxH4-101" target="O9S22BpsZ0d_PMURBxH4-89">
          <mxGeometry relative="1" as="geometry">
            <Array as="points">
              <mxPoint x="-910" y="-1280" />
            </Array>
          </mxGeometry>
        </mxCell>
        <mxCell id="O9S22BpsZ0d_PMURBxH4-101" value="Instrumentos Musicales" style="swimlane;fontStyle=1;align=center;verticalAlign=top;childLayout=stackLayout;horizontal=1;startSize=26;horizontalStack=0;resizeParent=1;resizeParentMax=0;resizeLast=0;collapsible=1;marginBottom=0;whiteSpace=wrap;html=1;strokeColor=#FF0000;" vertex="1" parent="1">
          <mxGeometry x="-750" y="-1280" width="160" height="150" as="geometry" />
        </mxCell>
        <mxCell id="O9S22BpsZ0d_PMURBxH4-102" value="Atributos:&amp;nbsp;&lt;br&gt;&lt;div style=&quot;text-align: center;&quot;&gt;&lt;span style=&quot;background-color: initial;&quot;&gt;Sonido, resonancia, acústica, tono.&lt;/span&gt;&lt;/div&gt;" style="text;strokeColor=#FF0000;fillColor=none;align=left;verticalAlign=top;spacingLeft=4;spacingRight=4;overflow=hidden;rotatable=0;points=[[0,0.5],[1,0.5]];portConstraint=eastwest;whiteSpace=wrap;html=1;" vertex="1" parent="O9S22BpsZ0d_PMURBxH4-101">
          <mxGeometry y="26" width="160" height="54" as="geometry" />
        </mxCell>
        <mxCell id="O9S22BpsZ0d_PMURBxH4-104" value="Métodos:&lt;br&gt;Vibrar&lt;br&gt;Afinar&lt;br&gt;Resonar" style="text;strokeColor=#FF0000;fillColor=none;align=left;verticalAlign=top;spacingLeft=4;spacingRight=4;overflow=hidden;rotatable=0;points=[[0,0.5],[1,0.5]];portConstraint=eastwest;whiteSpace=wrap;html=1;" vertex="1" parent="O9S22BpsZ0d_PMURBxH4-101">
          <mxGeometry y="80" width="160" height="70" as="geometry" />
        </mxCell>
        <mxCell id="O9S22BpsZ0d_PMURBxH4-107" value="Medios de Transporte" style="swimlane;fontStyle=1;align=center;verticalAlign=top;childLayout=stackLayout;horizontal=1;startSize=26;horizontalStack=0;resizeParent=1;resizeParentMax=0;resizeLast=0;collapsible=1;marginBottom=0;whiteSpace=wrap;html=1;" vertex="1" parent="1">
          <mxGeometry x="-760" y="-800" width="160" height="250" as="geometry" />
        </mxCell>
        <mxCell id="O9S22BpsZ0d_PMURBxH4-108" value="Atributos:&lt;br&gt;Tipo&lt;br&gt;Velocidad&lt;br&gt;Aceleración&lt;br&gt;Motor:&lt;br&gt;Peso&lt;br&gt;Capacidad" style="text;strokeColor=none;fillColor=none;align=left;verticalAlign=top;spacingLeft=4;spacingRight=4;overflow=hidden;rotatable=0;points=[[0,0.5],[1,0.5]];portConstraint=eastwest;whiteSpace=wrap;html=1;" vertex="1" parent="O9S22BpsZ0d_PMURBxH4-107">
          <mxGeometry y="26" width="160" height="104" as="geometry" />
        </mxCell>
        <mxCell id="O9S22BpsZ0d_PMURBxH4-109" value="" style="line;strokeWidth=1;fillColor=none;align=left;verticalAlign=middle;spacingTop=-1;spacingLeft=3;spacingRight=3;rotatable=0;labelPosition=right;points=[];portConstraint=eastwest;strokeColor=inherit;" vertex="1" parent="O9S22BpsZ0d_PMURBxH4-107">
          <mxGeometry y="130" width="160" height="18" as="geometry" />
        </mxCell>
        <mxCell id="O9S22BpsZ0d_PMURBxH4-110" value="Métodos:&lt;br&gt;Caminar&lt;br&gt;Volar&lt;br&gt;Navegar&lt;br&gt;Acelerar&lt;br&gt;Sumergir" style="text;strokeColor=none;fillColor=none;align=left;verticalAlign=top;spacingLeft=4;spacingRight=4;overflow=hidden;rotatable=0;points=[[0,0.5],[1,0.5]];portConstraint=eastwest;whiteSpace=wrap;html=1;" vertex="1" parent="O9S22BpsZ0d_PMURBxH4-107">
          <mxGeometry y="148" width="160" height="102" as="geometry" />
        </mxCell>
        <mxCell id="O9S22BpsZ0d_PMURBxH4-111" value="Bus" style="swimlane;fontStyle=1;align=center;verticalAlign=top;childLayout=stackLayout;horizontal=1;startSize=26;horizontalStack=0;resizeParent=1;resizeParentMax=0;resizeLast=0;collapsible=1;marginBottom=0;whiteSpace=wrap;html=1;" vertex="1" parent="1">
          <mxGeometry x="-1080" y="-446" width="160" height="250" as="geometry" />
        </mxCell>
        <mxCell id="O9S22BpsZ0d_PMURBxH4-112" value="Atributos:&lt;br style=&quot;border-color: var(--border-color);&quot;&gt;Tipo: Terrestre&lt;br style=&quot;border-color: var(--border-color);&quot;&gt;Velocidad: Media&amp;nbsp;&lt;br style=&quot;border-color: var(--border-color);&quot;&gt;Aceleración: Media&lt;br style=&quot;border-color: var(--border-color);&quot;&gt;Motor: Si&lt;br&gt;Peso: Alto&lt;br style=&quot;border-color: var(--border-color);&quot;&gt;Capacidad: Alta" style="text;strokeColor=none;fillColor=none;align=left;verticalAlign=top;spacingLeft=4;spacingRight=4;overflow=hidden;rotatable=0;points=[[0,0.5],[1,0.5]];portConstraint=eastwest;whiteSpace=wrap;html=1;" vertex="1" parent="O9S22BpsZ0d_PMURBxH4-111">
          <mxGeometry y="26" width="160" height="114" as="geometry" />
        </mxCell>
        <mxCell id="O9S22BpsZ0d_PMURBxH4-113" value="" style="line;strokeWidth=1;fillColor=none;align=left;verticalAlign=middle;spacingTop=-1;spacingLeft=3;spacingRight=3;rotatable=0;labelPosition=right;points=[];portConstraint=eastwest;strokeColor=inherit;" vertex="1" parent="O9S22BpsZ0d_PMURBxH4-111">
          <mxGeometry y="140" width="160" height="8" as="geometry" />
        </mxCell>
        <mxCell id="O9S22BpsZ0d_PMURBxH4-114" value="Métodos:&lt;br style=&quot;border-color: var(--border-color);&quot;&gt;Caminar: Si&lt;br style=&quot;border-color: var(--border-color);&quot;&gt;Volar: No&lt;br style=&quot;border-color: var(--border-color);&quot;&gt;Navegar: No&lt;br style=&quot;border-color: var(--border-color);&quot;&gt;Acelerar: Pedal&lt;br style=&quot;border-color: var(--border-color);&quot;&gt;Sumergir: NO" style="text;strokeColor=none;fillColor=none;align=left;verticalAlign=top;spacingLeft=4;spacingRight=4;overflow=hidden;rotatable=0;points=[[0,0.5],[1,0.5]];portConstraint=eastwest;whiteSpace=wrap;html=1;" vertex="1" parent="O9S22BpsZ0d_PMURBxH4-111">
          <mxGeometry y="148" width="160" height="102" as="geometry" />
        </mxCell>
        <mxCell id="O9S22BpsZ0d_PMURBxH4-115" value="Motocicleta" style="swimlane;fontStyle=1;align=center;verticalAlign=top;childLayout=stackLayout;horizontal=1;startSize=26;horizontalStack=0;resizeParent=1;resizeParentMax=0;resizeLast=0;collapsible=1;marginBottom=0;whiteSpace=wrap;html=1;" vertex="1" parent="1">
          <mxGeometry x="-760" y="-440" width="160" height="250" as="geometry" />
        </mxCell>
        <mxCell id="O9S22BpsZ0d_PMURBxH4-116" value="Atributos:&lt;br style=&quot;border-color: var(--border-color);&quot;&gt;Tipo: Terrestre&lt;br&gt;Velocidad: Media&lt;br style=&quot;border-color: var(--border-color);&quot;&gt;Aceleración: Media&lt;br style=&quot;border-color: var(--border-color);&quot;&gt;Motor: Si&lt;br style=&quot;border-color: var(--border-color);&quot;&gt;Peso: Liviano&lt;br style=&quot;border-color: var(--border-color);&quot;&gt;Capacidad: Baja" style="text;strokeColor=none;fillColor=none;align=left;verticalAlign=top;spacingLeft=4;spacingRight=4;overflow=hidden;rotatable=0;points=[[0,0.5],[1,0.5]];portConstraint=eastwest;whiteSpace=wrap;html=1;" vertex="1" parent="O9S22BpsZ0d_PMURBxH4-115">
          <mxGeometry y="26" width="160" height="114" as="geometry" />
        </mxCell>
        <mxCell id="O9S22BpsZ0d_PMURBxH4-117" value="" style="line;strokeWidth=1;fillColor=none;align=left;verticalAlign=middle;spacingTop=-1;spacingLeft=3;spacingRight=3;rotatable=0;labelPosition=right;points=[];portConstraint=eastwest;strokeColor=inherit;" vertex="1" parent="O9S22BpsZ0d_PMURBxH4-115">
          <mxGeometry y="140" width="160" height="8" as="geometry" />
        </mxCell>
        <mxCell id="O9S22BpsZ0d_PMURBxH4-118" value="Métodos:&lt;br style=&quot;border-color: var(--border-color);&quot;&gt;Caminar: Si&lt;br style=&quot;border-color: var(--border-color);&quot;&gt;Volar: No&lt;br style=&quot;border-color: var(--border-color);&quot;&gt;Navegar: No&lt;br style=&quot;border-color: var(--border-color);&quot;&gt;Acelerar: Manubrio&lt;br style=&quot;border-color: var(--border-color);&quot;&gt;Sumergir: No" style="text;strokeColor=none;fillColor=none;align=left;verticalAlign=top;spacingLeft=4;spacingRight=4;overflow=hidden;rotatable=0;points=[[0,0.5],[1,0.5]];portConstraint=eastwest;whiteSpace=wrap;html=1;" vertex="1" parent="O9S22BpsZ0d_PMURBxH4-115">
          <mxGeometry y="148" width="160" height="102" as="geometry" />
        </mxCell>
        <mxCell id="O9S22BpsZ0d_PMURBxH4-119" value="Bicicleta" style="swimlane;fontStyle=1;align=center;verticalAlign=top;childLayout=stackLayout;horizontal=1;startSize=26;horizontalStack=0;resizeParent=1;resizeParentMax=0;resizeLast=0;collapsible=1;marginBottom=0;whiteSpace=wrap;html=1;" vertex="1" parent="1">
          <mxGeometry x="-440" y="-440" width="160" height="240" as="geometry" />
        </mxCell>
        <mxCell id="O9S22BpsZ0d_PMURBxH4-120" value="Atributos:&lt;br style=&quot;border-color: var(--border-color);&quot;&gt;Tipo: Terrestre&lt;br style=&quot;border-color: var(--border-color);&quot;&gt;Velocidad: Baja&lt;br style=&quot;border-color: var(--border-color);&quot;&gt;Aceleración: Baja&lt;br style=&quot;border-color: var(--border-color);&quot;&gt;Motor: No&lt;br style=&quot;border-color: var(--border-color);&quot;&gt;Peso: Liviano&lt;br style=&quot;border-color: var(--border-color);&quot;&gt;Capacidad" style="text;strokeColor=none;fillColor=none;align=left;verticalAlign=top;spacingLeft=4;spacingRight=4;overflow=hidden;rotatable=0;points=[[0,0.5],[1,0.5]];portConstraint=eastwest;whiteSpace=wrap;html=1;" vertex="1" parent="O9S22BpsZ0d_PMURBxH4-119">
          <mxGeometry y="26" width="160" height="104" as="geometry" />
        </mxCell>
        <mxCell id="O9S22BpsZ0d_PMURBxH4-121" value="" style="line;strokeWidth=1;fillColor=none;align=left;verticalAlign=middle;spacingTop=-1;spacingLeft=3;spacingRight=3;rotatable=0;labelPosition=right;points=[];portConstraint=eastwest;strokeColor=inherit;" vertex="1" parent="O9S22BpsZ0d_PMURBxH4-119">
          <mxGeometry y="130" width="160" height="8" as="geometry" />
        </mxCell>
        <mxCell id="O9S22BpsZ0d_PMURBxH4-122" value="Métodos:&lt;br style=&quot;border-color: var(--border-color);&quot;&gt;Caminar: Si&lt;br style=&quot;border-color: var(--border-color);&quot;&gt;Volar: No&lt;br style=&quot;border-color: var(--border-color);&quot;&gt;Navegar: No&lt;br style=&quot;border-color: var(--border-color);&quot;&gt;Acelerar: Pedales&lt;br style=&quot;border-color: var(--border-color);&quot;&gt;Sumergir: No" style="text;strokeColor=none;fillColor=none;align=left;verticalAlign=top;spacingLeft=4;spacingRight=4;overflow=hidden;rotatable=0;points=[[0,0.5],[1,0.5]];portConstraint=eastwest;whiteSpace=wrap;html=1;" vertex="1" parent="O9S22BpsZ0d_PMURBxH4-119">
          <mxGeometry y="138" width="160" height="102" as="geometry" />
        </mxCell>
        <mxCell id="O9S22BpsZ0d_PMURBxH4-123" value="Jet" style="swimlane;fontStyle=1;align=center;verticalAlign=top;childLayout=stackLayout;horizontal=1;startSize=26;horizontalStack=0;resizeParent=1;resizeParentMax=0;resizeLast=0;collapsible=1;marginBottom=0;whiteSpace=wrap;html=1;" vertex="1" parent="1">
          <mxGeometry x="-920" y="-160" width="160" height="250" as="geometry" />
        </mxCell>
        <mxCell id="O9S22BpsZ0d_PMURBxH4-124" value="Atributos:&lt;br style=&quot;border-color: var(--border-color);&quot;&gt;Tipo: Aéreo&lt;br style=&quot;border-color: var(--border-color);&quot;&gt;Velocidad: Alta&lt;br style=&quot;border-color: var(--border-color);&quot;&gt;Aceleración: Alta&lt;br style=&quot;border-color: var(--border-color);&quot;&gt;Motor: Si&lt;br style=&quot;border-color: var(--border-color);&quot;&gt;Peso: Alto&lt;br style=&quot;border-color: var(--border-color);&quot;&gt;Capacidad: Baja" style="text;strokeColor=none;fillColor=none;align=left;verticalAlign=top;spacingLeft=4;spacingRight=4;overflow=hidden;rotatable=0;points=[[0,0.5],[1,0.5]];portConstraint=eastwest;whiteSpace=wrap;html=1;" vertex="1" parent="O9S22BpsZ0d_PMURBxH4-123">
          <mxGeometry y="26" width="160" height="114" as="geometry" />
        </mxCell>
        <mxCell id="O9S22BpsZ0d_PMURBxH4-125" value="" style="line;strokeWidth=1;fillColor=none;align=left;verticalAlign=middle;spacingTop=-1;spacingLeft=3;spacingRight=3;rotatable=0;labelPosition=right;points=[];portConstraint=eastwest;strokeColor=inherit;" vertex="1" parent="O9S22BpsZ0d_PMURBxH4-123">
          <mxGeometry y="140" width="160" height="8" as="geometry" />
        </mxCell>
        <mxCell id="O9S22BpsZ0d_PMURBxH4-126" value="Métodos:&lt;br style=&quot;border-color: var(--border-color);&quot;&gt;Caminar: No&lt;br style=&quot;border-color: var(--border-color);&quot;&gt;Volar: Si&lt;br style=&quot;border-color: var(--border-color);&quot;&gt;Navegar: No&lt;br style=&quot;border-color: var(--border-color);&quot;&gt;Acelerar: Palanca&lt;br style=&quot;border-color: var(--border-color);&quot;&gt;Sumergir: No" style="text;strokeColor=none;fillColor=none;align=left;verticalAlign=top;spacingLeft=4;spacingRight=4;overflow=hidden;rotatable=0;points=[[0,0.5],[1,0.5]];portConstraint=eastwest;whiteSpace=wrap;html=1;" vertex="1" parent="O9S22BpsZ0d_PMURBxH4-123">
          <mxGeometry y="148" width="160" height="102" as="geometry" />
        </mxCell>
        <mxCell id="O9S22BpsZ0d_PMURBxH4-127" value="Velero" style="swimlane;fontStyle=1;align=center;verticalAlign=top;childLayout=stackLayout;horizontal=1;startSize=26;horizontalStack=0;resizeParent=1;resizeParentMax=0;resizeLast=0;collapsible=1;marginBottom=0;whiteSpace=wrap;html=1;" vertex="1" parent="1">
          <mxGeometry x="-600" y="-160" width="160" height="250" as="geometry" />
        </mxCell>
        <mxCell id="O9S22BpsZ0d_PMURBxH4-128" value="Atributos:&lt;br style=&quot;border-color: var(--border-color);&quot;&gt;Tipo: Marítimo&lt;br style=&quot;border-color: var(--border-color);&quot;&gt;Velocidad: Baja&lt;br style=&quot;border-color: var(--border-color);&quot;&gt;Aceleración: Baja&lt;br style=&quot;border-color: var(--border-color);&quot;&gt;Motor: No&lt;br style=&quot;border-color: var(--border-color);&quot;&gt;Peso: Bajo&lt;br style=&quot;border-color: var(--border-color);&quot;&gt;Capacidad: Baja" style="text;strokeColor=none;fillColor=none;align=left;verticalAlign=top;spacingLeft=4;spacingRight=4;overflow=hidden;rotatable=0;points=[[0,0.5],[1,0.5]];portConstraint=eastwest;whiteSpace=wrap;html=1;" vertex="1" parent="O9S22BpsZ0d_PMURBxH4-127">
          <mxGeometry y="26" width="160" height="114" as="geometry" />
        </mxCell>
        <mxCell id="O9S22BpsZ0d_PMURBxH4-129" value="" style="line;strokeWidth=1;fillColor=none;align=left;verticalAlign=middle;spacingTop=-1;spacingLeft=3;spacingRight=3;rotatable=0;labelPosition=right;points=[];portConstraint=eastwest;strokeColor=inherit;" vertex="1" parent="O9S22BpsZ0d_PMURBxH4-127">
          <mxGeometry y="140" width="160" height="8" as="geometry" />
        </mxCell>
        <mxCell id="O9S22BpsZ0d_PMURBxH4-130" value="Métodos:&lt;br style=&quot;border-color: var(--border-color);&quot;&gt;Caminar: No&lt;br style=&quot;border-color: var(--border-color);&quot;&gt;Volar: No&lt;br style=&quot;border-color: var(--border-color);&quot;&gt;Navegar: Si&lt;br style=&quot;border-color: var(--border-color);&quot;&gt;Acelerar: Velas&lt;br style=&quot;border-color: var(--border-color);&quot;&gt;Sumergir: No" style="text;strokeColor=none;fillColor=none;align=left;verticalAlign=top;spacingLeft=4;spacingRight=4;overflow=hidden;rotatable=0;points=[[0,0.5],[1,0.5]];portConstraint=eastwest;whiteSpace=wrap;html=1;" vertex="1" parent="O9S22BpsZ0d_PMURBxH4-127">
          <mxGeometry y="148" width="160" height="102" as="geometry" />
        </mxCell>
      </root>
    </mxGraphModel>
  </diagram>
</mxfile>
